<?xml version="1.0" encoding="UTF-8" standalone="no"?>
<!DOCTYPE svg PUBLIC "-//W3C//DTD SVG 1.1//EN"
 "http://www.w3.org/Graphics/SVG/1.1/DTD/svg11.dtd">
<!-- Generated by graphviz version 14.0.4 (20251115.1723)
 -->
<!-- Title: G Pages: 1 -->
<svg width="672pt" height="251pt"
 viewBox="0.00 0.00 672.00 251.00" xmlns="http://www.w3.org/2000/svg" xmlns:xlink="http://www.w3.org/1999/xlink">
<g id="graph0" class="graph" transform="scale(1 1) rotate(0) translate(4 247.23)">
<title>G</title><style>.edge>path:hover{stroke-width:8}</style>
<polygon fill="white" stroke="none" points="-4,4 -4,-247.23 668.19,-247.23 668.19,4 -4,4"/>
<!-- pyxel -->
<g id="node1" class="node">
<title>pyxel</title><style>.edge>path:hover{stroke-width:8}</style>
<polygon fill="#06f9f9" stroke="black" points="579.18,-243.23 576.18,-247.23 555.18,-247.23 552.18,-243.23 525.18,-243.23 525.18,-207.23 579.18,-207.23 579.18,-243.23"/>
<text xml:space="preserve" text-anchor="middle" x="552.18" y="-221.73" font-family="Helvetica,sans-Serif" font-size="10.00" fill="#000000">pyxel</text>
</g>
<!-- Sprint4_clases_camion -->
<g id="node2" class="node">
<title>Sprint4_clases_camion</title><style>.edge>path:hover{stroke-width:8}</style>
<ellipse fill="#b34c4c" stroke="black" cx="35.18" cy="-31.11" rx="35.18" ry="31.11"/>
<text xml:space="preserve" text-anchor="middle" x="35.18" y="-39.61" font-family="Helvetica,sans-Serif" font-size="10.00" fill="#ffffff">Sprint4.</text>
<text xml:space="preserve" text-anchor="middle" x="35.18" y="-27.61" font-family="Helvetica,sans-Serif" font-size="10.00" fill="#ffffff">clases.</text>
<text xml:space="preserve" text-anchor="middle" x="35.18" y="-15.61" font-family="Helvetica,sans-Serif" font-size="10.00" fill="#ffffff">camion</text>
</g>
<!-- pyxel&#45;&gt;Sprint4_clases_camion -->
<g id="edge1" class="edge">
<title>pyxel&#45;&gt;Sprint4_clases_camion</title><style>.edge>path:hover{stroke-width:8}</style>
<path fill="none" stroke="black" d="M552.18,-170.23C534.8,-124.19 381.19,-139.24 337.18,-117.23"/>
<path fill="none" stroke="black" d="M555.2,-206.96C556.33,-196.32 556.47,-182.59 552.18,-171.23"/>
<path fill="none" stroke="black" d="M337.18,-115.23C232.48,-62.86 186.94,-107.96 79.18,-62.23 76.4,-61.05 73.61,-59.68 70.87,-58.19"/>
<polygon fill="#06f9f9" stroke="black" points="72.86,-55.3 62.48,-53.16 69.26,-61.31 72.86,-55.3"/>
</g>
<!-- Sprint4_clases_fabrica -->
<g id="node3" class="node">
<title>Sprint4_clases_fabrica</title><style>.edge>path:hover{stroke-width:8}</style>
<ellipse fill="#b34c4c" stroke="black" cx="123.18" cy="-31.11" rx="35.18" ry="31.11"/>
<text xml:space="preserve" text-anchor="middle" x="123.18" y="-39.61" font-family="Helvetica,sans-Serif" font-size="10.00" fill="#ffffff">Sprint4.</text>
<text xml:space="preserve" text-anchor="middle" x="123.18" y="-27.61" font-family="Helvetica,sans-Serif" font-size="10.00" fill="#ffffff">clases.</text>
<text xml:space="preserve" text-anchor="middle" x="123.18" y="-15.61" font-family="Helvetica,sans-Serif" font-size="10.00" fill="#ffffff">fabrica</text>
</g>
<!-- pyxel&#45;&gt;Sprint4_clases_fabrica -->
<g id="edge2" class="edge">
<title>pyxel&#45;&gt;Sprint4_clases_fabrica</title><style>.edge>path:hover{stroke-width:8}</style>
<path fill="none" stroke="black" d="M337.18,-115.23C266.4,-79.82 238.4,-96.73 167.18,-62.23 164.46,-60.91 161.72,-59.44 159.01,-57.88"/>
<polygon fill="#06f9f9" stroke="black" points="161.03,-55.01 150.69,-52.71 157.34,-60.96 161.03,-55.01"/>
</g>
<!-- Sprint4_clases_pantallaInicio -->
<g id="node4" class="node">
<title>Sprint4_clases_pantallaInicio</title><style>.edge>path:hover{stroke-width:8}</style>
<ellipse fill="#b34c4c" stroke="black" cx="228.18" cy="-31.11" rx="51.62" ry="31.11"/>
<text xml:space="preserve" text-anchor="middle" x="228.18" y="-39.61" font-family="Helvetica,sans-Serif" font-size="10.00" fill="#ffffff">Sprint4.</text>
<text xml:space="preserve" text-anchor="middle" x="228.18" y="-27.61" font-family="Helvetica,sans-Serif" font-size="10.00" fill="#ffffff">clases.</text>
<text xml:space="preserve" text-anchor="middle" x="228.18" y="-15.61" font-family="Helvetica,sans-Serif" font-size="10.00" fill="#ffffff">pantallaInicio</text>
</g>
<!-- pyxel&#45;&gt;Sprint4_clases_pantallaInicio -->
<g id="edge3" class="edge">
<title>pyxel&#45;&gt;Sprint4_clases_pantallaInicio</title><style>.edge>path:hover{stroke-width:8}</style>
<path fill="none" stroke="black" d="M337.18,-115.23C310.85,-102.06 284.52,-82.21 264.33,-65.21"/>
<polygon fill="#06f9f9" stroke="black" points="266.81,-62.73 256.94,-58.87 262.25,-68.04 266.81,-62.73"/>
</g>
<!-- Sprint4_clases_paquetes -->
<g id="node5" class="node">
<title>Sprint4_clases_paquetes</title><style>.edge>path:hover{stroke-width:8}</style>
<ellipse fill="#b34c4c" stroke="black" cx="337.18" cy="-31.11" rx="39.42" ry="31.11"/>
<text xml:space="preserve" text-anchor="middle" x="337.18" y="-39.61" font-family="Helvetica,sans-Serif" font-size="10.00" fill="#ffffff">Sprint4.</text>
<text xml:space="preserve" text-anchor="middle" x="337.18" y="-27.61" font-family="Helvetica,sans-Serif" font-size="10.00" fill="#ffffff">clases.</text>
<text xml:space="preserve" text-anchor="middle" x="337.18" y="-15.61" font-family="Helvetica,sans-Serif" font-size="10.00" fill="#ffffff">paquetes</text>
</g>
<!-- pyxel&#45;&gt;Sprint4_clases_paquetes -->
<g id="edge4" class="edge">
<title>pyxel&#45;&gt;Sprint4_clases_paquetes</title><style>.edge>path:hover{stroke-width:8}</style>
<path fill="none" stroke="black" d="M337.18,-115.23C322.15,-107.71 320.79,-89.82 323.78,-72.56"/>
<polygon fill="#06f9f9" stroke="black" points="327.18,-73.43 325.95,-62.9 320.35,-71.9 327.18,-73.43"/>
</g>
<!-- Sprint4_clases_personaje -->
<g id="node6" class="node">
<title>Sprint4_clases_personaje</title><style>.edge>path:hover{stroke-width:8}</style>
<ellipse fill="#b34c4c" stroke="black" cx="435.18" cy="-31.11" rx="41.01" ry="31.11"/>
<text xml:space="preserve" text-anchor="middle" x="435.18" y="-39.61" font-family="Helvetica,sans-Serif" font-size="10.00" fill="#ffffff">Sprint4.</text>
<text xml:space="preserve" text-anchor="middle" x="435.18" y="-27.61" font-family="Helvetica,sans-Serif" font-size="10.00" fill="#ffffff">clases.</text>
<text xml:space="preserve" text-anchor="middle" x="435.18" y="-15.61" font-family="Helvetica,sans-Serif" font-size="10.00" fill="#ffffff">personaje</text>
</g>
<!-- pyxel&#45;&gt;Sprint4_clases_personaje -->
<g id="edge5" class="edge">
<title>pyxel&#45;&gt;Sprint4_clases_personaje</title><style>.edge>path:hover{stroke-width:8}</style>
<path fill="none" stroke="black" d="M337.18,-115.23C321.79,-107.53 360.54,-78.92 393.76,-57.41"/>
<polygon fill="#06f9f9" stroke="black" points="395.56,-60.41 402.11,-52.08 391.79,-54.51 395.56,-60.41"/>
</g>
<!-- Sprint4_main -->
<g id="node7" class="node">
<title>Sprint4_main</title><style>.edge>path:hover{stroke-width:8}</style>
<ellipse fill="#b34c4c" stroke="black" cx="552.18" cy="-116.23" rx="42.54" ry="18"/>
<text xml:space="preserve" text-anchor="middle" x="552.18" y="-112.73" font-family="Helvetica,sans-Serif" font-size="10.00" fill="#ffffff">Sprint4.main</text>
</g>
<!-- pyxel&#45;&gt;Sprint4_main -->
<g id="edge6" class="edge">
<title>pyxel&#45;&gt;Sprint4_main</title><style>.edge>path:hover{stroke-width:8}</style>
<path fill="none" stroke="black" d="M552.18,-170.23C549.3,-162.59 548.41,-153.89 548.48,-145.77"/>
<polygon fill="#06f9f9" stroke="black" points="551.97,-146.19 549.07,-136 544.98,-145.77 551.97,-146.19"/>
</g>
<!-- Sprint4_utils_config -->
<g id="node8" class="node">
<title>Sprint4_utils_config</title><style>.edge>path:hover{stroke-width:8}</style>
<ellipse fill="#b34c4c" stroke="black" cx="529.18" cy="-31.11" rx="35.18" ry="31.11"/>
<text xml:space="preserve" text-anchor="middle" x="529.18" y="-39.61" font-family="Helvetica,sans-Serif" font-size="10.00" fill="#ffffff">Sprint4.</text>
<text xml:space="preserve" text-anchor="middle" x="529.18" y="-27.61" font-family="Helvetica,sans-Serif" font-size="10.00" fill="#ffffff">utils.</text>
<text xml:space="preserve" text-anchor="middle" x="529.18" y="-15.61" font-family="Helvetica,sans-Serif" font-size="10.00" fill="#ffffff">config</text>
</g>
<!-- pyxel&#45;&gt;Sprint4_utils_config -->
<g id="edge7" class="edge">
<title>pyxel&#45;&gt;Sprint4_utils_config</title><style>.edge>path:hover{stroke-width:8}</style>
<path fill="none" stroke="black" d="M623.18,-115.23C624.85,-107.2 592.08,-79.89 564.77,-58.74"/>
<polygon fill="#06f9f9" stroke="black" points="567.05,-56.07 556.98,-52.76 562.79,-61.63 567.05,-56.07"/>
<path fill="none" stroke="black" d="M552.18,-170.23C538.27,-133.39 615.13,-155.77 623.18,-117.23"/>
</g>
<!-- Sprint4_utils_funciones -->
<g id="node9" class="node">
<title>Sprint4_utils_funciones</title><style>.edge>path:hover{stroke-width:8}</style>
<ellipse fill="#b34c4c" stroke="black" cx="623.18" cy="-31.11" rx="41.01" ry="31.11"/>
<text xml:space="preserve" text-anchor="middle" x="623.18" y="-39.61" font-family="Helvetica,sans-Serif" font-size="10.00" fill="#ffffff">Sprint4.</text>
<text xml:space="preserve" text-anchor="middle" x="623.18" y="-27.61" font-family="Helvetica,sans-Serif" font-size="10.00" fill="#ffffff">utils.</text>
<text xml:space="preserve" text-anchor="middle" x="623.18" y="-15.61" font-family="Helvetica,sans-Serif" font-size="10.00" fill="#ffffff">funciones</text>
</g>
<!-- pyxel&#45;&gt;Sprint4_utils_funciones -->
<g id="edge8" class="edge">
<title>pyxel&#45;&gt;Sprint4_utils_funciones</title><style>.edge>path:hover{stroke-width:8}</style>
<path fill="none" stroke="black" d="M623.18,-115.23C625.96,-101.9 626.69,-87.1 626.51,-73.73"/>
<polygon fill="#06f9f9" stroke="black" points="630.01,-73.82 626.18,-63.94 623.01,-74.05 630.01,-73.82"/>
</g>
</g>
</svg>
